<?xml version="1.0" standalone="no"?>
<!DOCTYPE svg PUBLIC "-//W3C//DTD SVG 20010904//EN"
 "http://www.w3.org/TR/2001/REC-SVG-20010904/DTD/svg10.dtd">
<svg version="1.0" xmlns="http://www.w3.org/2000/svg"
 width="1024.000000pt" height="1024.000000pt" viewBox="0 0 1024.000000 1024.000000"
 preserveAspectRatio="xMidYMid meet">

<g transform="translate(0.000000,1024.000000) scale(0.100000,-0.100000)"
fill="#000000" stroke="none">
<path d="M4840 8670 c-663 -52 -1348 -301 -1905 -693 -312 -220 -621 -522
-848 -830 -400 -540 -654 -1205 -708 -1853 -15 -180 -6 -638 16 -793 91 -656
302 -1192 672 -1711 250 -349 593 -683 948 -920 220 -146 369 -226 680 -365
50 -22 323 -114 420 -142 329 -93 575 -131 910 -140 709 -19 1430 170 2040
535 272 164 481 328 726 572 595 594 959 1339 1066 2185 22 175 25 671 5 840
-108 919 -491 1680 -1163 2312 -388 364 -870 648 -1399 823 -386 129 -673 175
-1135 184 -115 3 -262 1 -325 -4z m606 -426 c178 -17 454 -69 614 -115 395
-115 783 -315 1132 -584 182 -139 477 -433 608 -603 348 -453 572 -992 640
-1542 58 -477 22 -932 -111 -1386 -142 -486 -432 -985 -778 -1337 -340 -347
-695 -596 -1088 -766 -420 -180 -865 -271 -1333 -271 -850 0 -1624 299 -2270
876 -453 405 -820 1016 -975 1624 -72 282 -99 520 -98 845 1 478 69 815 253
1251 270 639 791 1223 1415 1582 431 248 864 381 1415 435 102 10 435 5 576
-9z"/>
<path d="M5035 7192 c-44 -75 -118 -202 -166 -282 -157 -264 -232 -392 -511
-870 -69 -118 -152 -260 -183 -315 -253 -438 -320 -554 -377 -650 -71 -119
-118 -209 -118 -224 0 -5 123 -96 273 -202 149 -106 308 -218 352 -249 44 -31
154 -108 245 -171 91 -62 244 -169 340 -236 96 -67 189 -130 207 -140 l32 -17
58 39 c122 83 415 286 583 405 96 67 204 143 240 168 36 25 148 104 250 176
102 71 213 150 248 174 34 24 62 51 62 59 0 18 -171 316 -552 963 -131 223
-383 652 -561 954 -177 302 -327 551 -332 553 -6 1 -46 -59 -90 -135z"/>
<path d="M3106 6649 c-51 -12 -91 -42 -124 -93 -26 -39 -27 -48 -30 -187 l-4
-147 -142 -4 c-133 -4 -146 -6 -189 -31 -69 -41 -100 -100 -101 -191 0 -61 4
-79 27 -118 51 -88 104 -108 285 -108 l122 0 0 -133 c0 -118 3 -138 23 -177
34 -68 92 -103 178 -108 59 -4 77 -1 123 22 35 17 63 41 82 68 28 40 29 45 32
185 l3 143 115 0 c63 0 135 5 158 11 156 39 213 245 102 367 -48 54 -91 66
-238 70 l-138 4 0 136 c0 158 -13 198 -75 249 -57 47 -127 61 -209 42z"/>
<path d="M6930 6440 c-94 -10 -188 -32 -275 -65 -73 -27 -225 -104 -264 -134
l-25 -19 66 -88 c37 -49 85 -120 108 -159 24 -38 47 -75 52 -82 7 -8 34 1 101
33 123 58 209 77 319 72 75 -4 97 -9 155 -39 88 -45 125 -100 131 -195 5 -80
-14 -137 -65 -189 -67 -69 -102 -78 -330 -83 l-203 -4 5 -97 c2 -53 4 -147 4
-208 l1 -113 180 0 c251 0 314 -16 410 -106 67 -62 94 -128 94 -229 1 -68 -3
-88 -27 -137 -37 -76 -101 -131 -184 -159 -90 -30 -241 -24 -358 15 -44 14
-85 26 -92 26 -6 0 -34 -42 -61 -93 -28 -51 -80 -134 -116 -184 -36 -51 -66
-94 -66 -97 0 -18 177 -82 303 -111 161 -37 374 -37 520 0 376 95 610 381 609
741 -1 165 -50 307 -149 429 -43 53 -153 146 -186 158 -7 2 16 31 50 63 114
108 174 242 175 394 1 107 -14 174 -62 275 -67 141 -206 268 -353 325 -134 52
-317 76 -467 60z"/>
<path d="M3061 4584 c-34 -17 -62 -41 -79 -67 -26 -39 -27 -47 -30 -193 l-4
-153 -147 -3 c-141 -3 -149 -4 -189 -30 -22 -15 -53 -49 -68 -74 -51 -87 -34
-214 38 -281 46 -43 89 -53 232 -53 l135 0 3 -149 c3 -148 3 -150 33 -192 79
-112 252 -123 347 -22 48 50 58 90 58 233 l0 130 130 0 c143 0 183 10 233 58
90 85 96 215 14 308 -59 67 -83 74 -242 74 l-135 0 0 135 c0 185 -21 232 -125
281 -68 33 -136 32 -204 -2z"/>
<path d="M3856 4411 c-6 -10 78 -146 243 -394 62 -93 250 -383 419 -645 168
-263 357 -556 419 -652 62 -96 127 -199 144 -227 17 -29 34 -53 39 -53 4 0 36
44 71 98 35 53 205 315 379 582 173 267 362 557 418 645 57 88 173 266 258
395 146 223 167 260 144 260 -14 0 -836 -563 -1185 -810 l-80 -57 -75 53
c-100 71 -503 353 -613 428 -48 34 -136 95 -195 137 -183 128 -363 249 -372
249 -5 0 -11 -4 -14 -9z"/>
<path d="M9980 2548 c0 -4 4 -8 9 -8 6 0 12 4 15 8 3 5 -1 9 -9 9 -8 0 -15 -4
-15 -9z"/>
</g>
</svg>
